<svg width="102" height="21" viewBox="0 0 102 21" fill="none" xmlns="http://www.w3.org/2000/svg">
<g clip-path="url(#clip0_2513_395)">
<path d="M89.6807 4.70611C89.6196 4.67633 89.528 4.67633 89.4669 4.64654C89.2539 4.61676 89.0408 4.58698 88.827 4.58698C88.1572 4.58698 87.5471 4.7359 87.0599 5.06354C86.5421 5.39117 86.1458 5.86772 85.8716 6.46342L85.7495 4.7359H82.8545V16.2328H85.9626V10.6035C85.9626 9.6504 86.2068 8.93555 86.6636 8.42919C87.1209 7.92289 87.7914 7.65484 88.6444 7.65484C88.827 7.65484 89.0102 7.65484 89.1622 7.68459C89.3455 7.71441 89.4975 7.74417 89.6502 7.80374V4.70611H89.6807Z" fill="#61E212"/>
<path d="M95.4096 15.9349C94.678 15.9349 94.0075 15.786 93.3676 15.4882C92.7277 15.1903 92.1793 14.8031 91.722 14.267C91.2652 13.7607 90.8995 13.1351 90.6253 12.4501C90.3505 11.765 90.229 11.0204 90.229 10.2163C90.229 9.38226 90.3505 8.63766 90.6253 7.92281C90.8995 7.20797 91.2652 6.61227 91.7525 6.07615C92.2398 5.56981 92.8193 5.15282 93.4592 4.85497C94.0992 4.55712 94.7995 4.4082 95.5616 4.4082C96.2931 4.4082 96.9636 4.55712 97.573 4.85497C98.1824 5.15282 98.6697 5.56981 99.066 6.13572L99.127 4.73583H101.961V14.8626C101.961 15.7562 101.808 16.5604 101.534 17.2752C101.26 17.9901 100.833 18.6156 100.315 19.1517C99.7975 19.6878 99.1576 20.075 98.4566 20.3729C97.725 20.6409 96.9331 20.7899 96.0488 20.7899C95.1958 20.7899 94.4039 20.6409 93.7334 20.3729C93.0324 20.1048 92.4535 19.7176 91.9351 19.241C91.4173 18.7645 91.021 18.1986 90.7163 17.5731L93.6418 16.8583C93.9159 17.2752 94.2512 17.6029 94.6475 17.8412C95.0743 18.0794 95.5311 18.1986 96.0488 18.1986C96.6284 18.1986 97.1156 18.0794 97.5119 17.8114C97.9388 17.5433 98.2435 17.2157 98.4871 16.7391C98.7307 16.2923 98.8223 15.7562 98.8223 15.1308V14.2074C98.426 14.7436 97.9388 15.1308 97.3287 15.4286C96.7804 15.786 96.1099 15.9349 95.4096 15.9349ZM96.1405 13.2245C96.6888 13.2245 97.1462 13.1054 97.573 12.8373C97.9992 12.5693 98.3344 12.2118 98.5787 11.7353C98.8223 11.2885 98.9438 10.7524 98.9438 10.1864C98.9438 9.62056 98.8223 9.08444 98.5787 8.63766C98.3344 8.19087 97.9992 7.80366 97.573 7.5356C97.1462 7.26754 96.6888 7.14839 96.1405 7.14839C95.5921 7.14839 95.1347 7.26754 94.7086 7.5356C94.2817 7.80366 93.9465 8.16111 93.7029 8.63766C93.4592 9.08444 93.3371 9.62056 93.3371 10.1864C93.3371 10.7524 93.4592 11.2885 93.7029 11.7353C93.9465 12.1821 94.2817 12.5693 94.7086 12.8373C95.1347 13.1054 95.5921 13.2245 96.1405 13.2245Z" fill="#61E212"/>
<path d="M75.5106 16.5901C74.6576 16.5901 73.8656 16.4412 73.1341 16.1433C72.4026 15.8455 71.7626 15.4285 71.2143 14.8626C70.6659 14.3265 70.2391 13.6712 69.9649 12.9266C69.6602 12.182 69.5076 11.3778 69.5076 10.5141C69.5076 9.6503 69.6602 8.84606 69.9649 8.10146C70.2696 7.35686 70.6965 6.73135 71.2448 6.16545C71.7932 5.62932 72.4331 5.18255 73.1646 4.8847C73.8955 4.58685 74.7187 4.43793 75.5717 4.43793C76.4254 4.43793 77.2173 4.58685 77.9489 4.8847C78.6798 5.18255 79.3197 5.59954 79.8687 6.16545C80.417 6.70159 80.8439 7.35686 81.118 8.07171C81.3922 8.78649 81.5748 9.59073 81.5748 10.4842C81.5748 11.348 81.4227 12.1522 81.118 12.8968C80.8133 13.6414 80.3865 14.2967 79.8382 14.8328C79.2892 15.3987 78.6492 15.8157 77.9183 16.1136C77.2173 16.4114 76.3948 16.5901 75.5106 16.5901ZM75.5717 13.8202C76.12 13.8202 76.6079 13.6712 77.0647 13.3734C77.4915 13.0756 77.8573 12.6883 78.1009 12.182C78.3445 11.6756 78.4972 11.1097 78.4972 10.4842C78.4972 9.85879 78.3751 9.26309 78.1009 8.78649C77.8573 8.28019 77.4915 7.89298 77.0647 7.5951C76.6385 7.29729 76.12 7.14838 75.5717 7.14838C75.0234 7.14838 74.5355 7.29729 74.0787 7.5951C73.6519 7.89298 73.2861 8.28019 73.0425 8.78649C72.7989 9.29285 72.6462 9.85879 72.6462 10.4842C72.6462 11.1097 72.7683 11.7054 73.0425 12.182C73.2861 12.6883 73.6519 13.0756 74.0787 13.3734C74.5056 13.701 75.0234 13.8202 75.5717 13.8202Z" fill="#61E212"/>
<path d="M66.9171 16.3221C66.5514 16.3221 66.2161 16.2328 65.942 16.054C65.6678 15.8753 65.4242 15.6371 65.241 15.369C65.0584 15.0711 64.9668 14.7733 64.9668 14.4159C64.9668 14.0585 65.0584 13.7606 65.241 13.4628C65.4242 13.1649 65.6373 12.9266 65.942 12.7777C66.2161 12.599 66.5514 12.5096 66.9171 12.5096C67.2829 12.5096 67.6181 12.599 67.8923 12.7777C68.1665 12.9564 68.4101 13.1947 68.5933 13.4628C68.7759 13.7606 68.8675 14.0585 68.8675 14.4159C68.8675 14.7733 68.7759 15.0711 68.5933 15.369C68.4101 15.6668 68.197 15.9051 67.8923 16.054C67.6181 16.2625 67.2829 16.3221 66.9171 16.3221Z" fill="#61E212"/>
<path d="M52.1084 16.3519V0.119141H55.2166V6.31439C55.6432 5.74847 56.1612 5.33148 56.7707 5.00385C57.4106 4.67622 58.1115 4.52729 58.8428 4.52729C59.6046 4.52729 60.336 4.67622 60.9759 4.97407C61.6158 5.27191 62.1948 5.71869 62.6824 6.25482C63.1699 6.79095 63.5661 7.44622 63.8403 8.16106C64.1146 8.8759 64.2365 9.68008 64.2365 10.5438C64.2365 11.4076 64.0841 12.2118 63.8099 12.9564C63.5356 13.701 63.1395 14.3563 62.6214 14.8924C62.1034 15.4583 61.5244 15.8753 60.8235 16.2029C60.1531 16.5008 59.3913 16.6795 58.6295 16.6795C57.8677 16.6795 57.1668 16.5306 56.5269 16.2029C55.9175 15.8753 55.3994 15.4285 55.0033 14.8627L54.9118 16.3817H52.1084V16.3519ZM58.1419 13.9393C58.7209 13.9393 59.2085 13.7904 59.6656 13.4925C60.1227 13.1947 60.4578 12.8075 60.7321 12.3012C61.0064 11.7948 61.1283 11.2289 61.1283 10.6034C61.1283 9.97789 61.0064 9.3822 60.7321 8.90566C60.4578 8.3993 60.1227 8.01209 59.6656 7.71427C59.2085 7.4164 58.7209 7.26749 58.1419 7.26749C57.563 7.26749 57.0754 7.4164 56.6183 7.71427C56.1612 8.01209 55.826 8.3993 55.5518 8.90566C55.2775 9.41202 55.1557 9.97789 55.1557 10.6034C55.1557 11.2289 55.2775 11.8245 55.5518 12.3012C55.826 12.8075 56.1612 13.1947 56.6183 13.4925C57.0754 13.7904 57.563 13.9393 58.1419 13.9393Z" fill="white"/>
<path d="M39.8279 16.3519V4.85491H42.6923L42.7837 6.34416C43.1189 5.77825 43.6065 5.36126 44.1855 5.03363C44.795 4.70599 45.4653 4.55707 46.2576 4.55707C47.1109 4.55707 47.8727 4.76556 48.5126 5.15277C49.1525 5.53997 49.6706 6.13566 50.0057 6.85052C50.3714 7.59512 50.5543 8.45887 50.5543 9.4716V16.3817H47.446V9.85874C47.446 9.05457 47.2632 8.42912 46.8975 7.98233C46.5319 7.53555 46.0138 7.29724 45.3739 7.29724C44.8864 7.29724 44.4902 7.41639 44.1245 7.62488C43.7588 7.83343 43.4846 8.13124 43.2713 8.51845C43.058 8.90566 42.9666 9.32263 42.9666 9.79923V16.4114H39.8279V16.3519Z" fill="white"/>
<path d="M26.3894 16.3519V0.119141H29.5281V6.31439C29.9547 5.74847 30.4728 5.33148 31.1127 5.00385C31.7526 4.67622 32.423 4.52729 33.1848 4.52729C33.9466 4.52729 34.678 4.67622 35.3179 4.97407C35.9578 5.27191 36.5368 5.71869 37.0244 6.25482C37.512 6.79095 37.9081 7.44622 38.1824 8.16106C38.4566 8.8759 38.6089 9.68008 38.6089 10.5438C38.6089 11.4076 38.4566 12.2118 38.1824 12.9564C37.9081 13.701 37.512 14.3563 36.9939 14.8924C36.4759 15.4583 35.8969 15.8753 35.196 16.2029C34.5256 16.5008 33.7638 16.6795 33.002 16.6795C32.2402 16.6795 31.5393 16.5306 30.8994 16.2029C30.2594 15.8753 29.7719 15.4285 29.3453 14.8627L29.2539 16.3817H26.3894V16.3519ZM32.423 13.9393C32.9715 13.9393 33.4896 13.7904 33.9466 13.4925C34.4037 13.1947 34.7389 12.8075 35.0132 12.3012C35.2874 11.7948 35.4093 11.2289 35.4093 10.6034C35.4093 9.97789 35.2874 9.3822 35.0132 8.90566C34.7389 8.3993 34.4037 8.01209 33.9466 7.71427C33.4896 7.4164 33.002 7.26749 32.423 7.26749C31.8441 7.26749 31.3565 7.4164 30.8994 7.71427C30.4423 8.01209 30.1071 8.3993 29.8328 8.90566C29.5586 9.41202 29.4367 9.97789 29.4367 10.6034C29.4367 11.2289 29.5586 11.8245 29.8328 12.3012C30.1071 12.8075 30.4423 13.1947 30.8994 13.4925C31.3565 13.7904 31.8745 13.9393 32.423 13.9393Z" fill="white"/>
<path d="M25.1394 4.79541C25.0784 4.76563 24.9869 4.76563 24.926 4.73584C24.7127 4.70606 24.4994 4.67627 24.2861 4.67627C23.6157 4.67627 23.0063 4.8252 22.4882 5.15283C21.9702 5.48046 21.574 5.95702 21.2998 6.55271L21.1779 4.79541H18.3135V16.2923H21.4217V10.7226C21.4217 9.76948 21.6654 9.05464 22.1226 8.51852C22.5796 8.01216 23.25 7.7441 24.1032 7.7441C24.2861 7.7441 24.4689 7.7441 24.6213 7.77392C24.8041 7.80367 24.9565 7.83349 25.1089 7.89301V4.79541H25.1394Z" fill="white"/>
<path d="M17.0342 1.7573C17.0342 2.08494 16.9428 2.38279 16.7904 2.65085C16.6381 2.91892 16.4248 3.1274 16.1505 3.27633C15.8763 3.42526 15.5715 3.51461 15.2363 3.51461C14.9012 3.51461 14.5964 3.42526 14.3222 3.27633C14.0479 3.1274 13.8346 2.91892 13.6822 2.65085C13.5299 2.38279 13.4385 2.08494 13.4385 1.7573C13.4385 1.42967 13.5299 1.13182 13.6822 0.863758C13.8346 0.595696 14.0479 0.387203 14.3222 0.238278C14.6269 0.0893546 14.9012 0 15.2363 0C15.5715 0 15.8763 0.0893546 16.1505 0.238278C16.4248 0.387203 16.6381 0.595696 16.7904 0.863758C16.9428 1.10204 17.0342 1.39989 17.0342 1.7573ZM13.6822 4.85493H16.7904V16.3519H13.6822V4.85493Z" fill="white"/>
<path d="M5.39366 16.6795C4.63184 16.6795 3.9005 16.5305 3.26057 16.2327C2.62065 15.9348 2.04167 15.4881 1.5541 14.9519C1.06654 14.4158 0.6704 13.7605 0.396144 13.0458C0.121891 12.3309 0 11.5267 0 10.6629C0 9.79918 0.152363 8.99501 0.426617 8.25041C0.70087 7.50574 1.09701 6.85047 1.61505 6.31437C2.13309 5.74846 2.71206 5.33147 3.41293 5.00384C4.08333 4.70599 4.84515 4.52728 5.60697 4.52728C6.36878 4.52728 7.06964 4.6762 7.70958 5.00384C8.34951 5.33147 8.83703 5.77824 9.23321 6.34416L9.32462 4.85491H12.1586V16.3519H9.29415L9.20274 14.6839C8.80656 15.3094 8.2581 15.7859 7.5877 16.1434C6.91729 16.5008 6.18594 16.6795 5.39366 16.6795ZM6.125 13.9393C6.704 13.9393 7.19152 13.7904 7.64864 13.4925C8.10575 13.1947 8.44092 12.8075 8.71515 12.3011C8.98945 11.7948 9.11133 11.2289 9.11133 10.6034C9.11133 9.97791 8.98945 9.38222 8.71515 8.90567C8.44092 8.39931 8.10575 8.0121 7.64864 7.71422C7.19152 7.41641 6.704 7.2675 6.125 7.2675C5.54602 7.2675 5.05846 7.41641 4.60137 7.71422C4.14428 8.0121 3.80908 8.39931 3.53483 8.90567C3.26057 9.41197 3.13868 9.97791 3.13868 10.6034C3.13868 11.2289 3.26057 11.8246 3.53483 12.3011C3.80908 12.8075 4.14428 13.1947 4.60137 13.4925C5.05846 13.7904 5.54602 13.9393 6.125 13.9393Z" fill="white"/>
</g>
<defs>
<clipPath id="clip0_2513_395">
<rect width="102" height="20.7898" fill="white"/>
</clipPath>
</defs>
</svg>
